# xmcd
#
# Track frame offsets:
#	150
#	23554
#	51425
#	83707
#	110180
#	139336
#	170915
#	202255
#	237965
#	269155
#	311000
#
# Disc length: 4748 seconds
#
# Revision: 1
# Processed by: cddbd v1.5.1PL0 Copyright (c) Steve Scherf et al.
# Submitted via: EasyCDDAExtractor 8.0.2.1
#
DISCID=ad128a0b
DTITLE=Stonebridge - Can't Get Enough - The Remixes
DYEAR=2005
DGENRE=Dance
TTITLE0=Put 'Em High (Lief Remix)
TTITLE1=Gotta Give It Up (Klub Mix)
TTITLE2=Freak On (JJ - Stockholm Club Mix)
TTITLE3=Clorophilla (Put A Little Love) (T&F vs Molosugo Klub Remix)
TTITLE4=Put 'Em High (Sharp Boys Original Mix)
TTITLE5=Take Me Away (Stone's Re-Rub)
TTITLE6=Gotta Give It Up (Tom De Neef Remix)
TTITLE7=Put 'Em High (JJ's Club Mix)
TTITLE8=Take Me Away (DJ Bomba and J Paolo Back To The 80's New Styling Remix)
TTITLE9=Freak On (Ferry Corsten 12" Edit)
TTITLE10=DATA
EXTD=
EXTT0=
EXTT1=
EXTT2=
EXTT3=
EXTT4=
EXTT5=
EXTT6=
EXTT7=
EXTT8=
EXTT9=
EXTT10=
PLAYORDER=
